<?xml version="1.0" standalone="no"?>
<!DOCTYPE svg PUBLIC "-//W3C//DTD SVG 20010904//EN" "http://www.w3.org/TR/2001/REC-SVG-20010904/DTD/svg10.dtd">
<!-- Created using Karbon, part of Calligra: http://www.calligra.org/karbon -->
<svg xmlns="http://www.w3.org/2000/svg" xmlns:xlink="http://www.w3.org/1999/xlink" width="12.8pt" height="12.8pt">
<defs/>
<g id="Icons with numbers">
  <g id="Group" transform="translate(-0.625, -0.625)" fill="none">
   <path id="Oval 191 copy 2" transform="translate(0.625, 0.625)" fill="#000000" fill-rule="evenodd" d="M8 14C10.973 14 13.441 11.8377 13.917 9L15.9381 9C15.446 12.9463 12.0796 16 8 16C5.31098 16 2.93183 14.6733 1.48141 12.6388L0 14L0 9L0.061894 9L2.08296 9L5.44141 9L2.96947 11.2714C4.0399 12.9141 5.89313 14 8 14ZM13.917 7L13 7L11 7L13.1238 4.8763C12.0699 3.15134 10.1694 2 8 2C5.027 2 2.55903 4.16229 2.08296 7L0.061894 7C0.553984 3.0537 3.92038 0 8 0C10.72 0 13.1229 1.35743 14.5683 3.43178L16 2.00012L16 7L15.9381 7ZM13.917 7"/>
  </g>
 </g>
</svg>
