<?xml version="1.0" standalone="no"?>
<!DOCTYPE svg PUBLIC "-//W3C//DTD SVG 20010904//EN" "http://www.w3.org/TR/2001/REC-SVG-20010904/DTD/svg10.dtd">
<!-- Created using Karbon, part of Calligra: http://www.calligra.org/karbon -->
<svg xmlns="http://www.w3.org/2000/svg" xmlns:xlink="http://www.w3.org/1999/xlink" width="51.2pt" height="51.2pt">
<defs/>
<g id="layer0">
  <path id="shape0" transform="translate(0.287347, 0.287347)" fill="#000000" stroke="#000000" stroke-width="0.70866264500" d="M31.7127 3.17127C47.4506 3.17127 60.254 15.9747 60.254 31.7127C60.254 47.4506 47.4506 60.254 31.7127 60.254C15.9747 60.254 3.17127 47.4506 3.17127 31.7127C3.17127 15.9747 15.9747 3.17127 31.7127 3.17127M31.7127 0C14.1999 0 0 14.1988 0 31.7127C0 49.2265 14.1999 63.4253 31.7127 63.4253C49.2254 63.4253 63.4253 49.2265 63.4253 31.7127C63.4253 14.1988 49.2254 0 31.7127 0Z"/>
  <path id="shape1" transform="translate(18, 20.0188)" fill="#000000" d="M29.988 8.72216L18.012 0.841165C15.256 -0.971835 13 0.244165 13 3.54416L13 6.09916L5.012 0.842165C2.256 -0.971835 0 0.244165 0 3.54416L0 20.4192C0 23.7192 2.259 24.9402 5.021 23.1332L13 17.9112L13 20.4192C13 23.7192 15.259 24.9402 18.021 23.1332L29.98 15.3072C32.741 13.4992 32.744 10.5362 29.988 8.72216ZM27.858 13.1092L17.673 19.7742C16.753 20.3772 16 19.9692 16 18.8702L16 14.3622C16 13.2622 15.247 12.8552 14.326 13.4572L4.674 19.7752C3.753 20.3772 3 19.9692 3 18.8702L3 5.10916C3 4.00916 3.752 3.60416 4.671 4.20916L14.329 10.5632C15.248 11.1672 16 10.7622 16 9.66316L16 5.10916C16 4.00916 16.752 3.60416 17.671 4.20916L27.861 10.9142C28.78 11.5182 28.779 12.5062 27.858 13.1092Z"/>
  <path id="shape2" transform="translate(21.1862, 22.8414)" fill="none" stroke="#000000" stroke-width="1.41732529000" d="M0 0.882759L0.22069 17.5448L1.10345 0C1.32414 11.6966 1.43448 17.508 1.43448 17.4345C1.43448 17.3609 1.76552 11.954 2.42759 1.21379L2.64828 16.8828L3.42069 1.98621C3.49425 11.3287 3.53103 15.9632 3.53103 15.8897C3.53103 15.8161 3.89885 11.292 4.63448 2.31724L4.74483 15.2276L5.62759 3.53103L5.73793 15.2276L6.4 3.75172L6.73103 14.2345L7.3931 3.97241C7.61379 10.446 7.72414 13.646 7.72414 13.5724C7.72414 13.4989 8.05517 10.8506 8.71724 5.62759L8.6069 12.1379L9.71034 6.17931C9.34253 9.85747 9.15862 11.7333 9.15862 11.8069C9.15862 11.8805 9.71034 10.2621 10.8138 6.95172L10.4828 11.8069L12.0276 7.06207L12.0276 11.2552L13.131 17.7655L13.131 0.772414C13.8667 12.0276 14.2345 17.5816 14.2345 17.4345C14.2345 17.2874 14.1609 11.4759 14.0138 0C14.823 11.4023 15.2276 17.0667 15.2276 16.9931C15.2276 16.8828 15.1172 0.772414 15.1172 0.882759C15.1172 0.993103 16.4414 16.1103 16.5517 16.1103C16.6253 16.1103 16.5517 11.3655 16.331 1.87586C17.1402 11.292 17.5448 15.7793 17.5448 15.3379C17.5448 14.6759 17.2138 0.993103 17.4345 1.87586C17.6552 2.75862 18.3172 14.5655 18.4276 14.3448C18.5011 14.1977 18.5379 10.5195 18.5379 3.31034L19.2 13.9034C19.5678 7.28276 19.7517 4.0092 19.7517 4.08276C19.7517 4.15632 19.8989 7.28276 20.1931 13.4621C20.708 7.35632 20.9655 4.45057 20.9655 4.74483C20.9655 5.03908 21.1126 7.76092 21.4069 12.9103C21.8483 7.83448 22.069 5.37011 22.069 5.51724C22.069 5.66437 22.2161 7.87126 22.5103 12.1379L22.9517 6.51034L23.3931 11.4759C23.6138 8.38621 23.7241 6.87816 23.7241 6.95172C23.7241 7.02529 24.1287 8.23908 24.9379 10.5931L25.269 8.05517L6.17931 7.83448C6.17931 7.83448 4.11954 5.51724 0 0.882759Z"/>
 </g>
</svg>
