<?xml version="1.0" standalone="no"?>
<!DOCTYPE svg PUBLIC "-//W3C//DTD SVG 20010904//EN" "http://www.w3.org/TR/2001/REC-SVG-20010904/DTD/svg10.dtd">
<!-- Created using Karbon, part of Calligra: http://www.calligra.org/karbon -->
<svg xmlns="http://www.w3.org/2000/svg" xmlns:xlink="http://www.w3.org/1999/xlink" width="51.2pt" height="51.2pt">
<defs/>
<g id="layer0">
  <path id="shape0" transform="translate(0.287347, 0.287347)" fill="#000000" stroke="#000000" stroke-width="0.70866264500" stroke-linecap="butt" stroke-linejoin="miter" stroke-miterlimit="1.98425540600" d="M31.7127 3.17127C47.4506 3.17127 60.254 15.9747 60.254 31.7127C60.254 47.4506 47.4506 60.254 31.7127 60.254C15.9747 60.254 3.17127 47.4506 3.17127 31.7127C3.17127 15.9747 15.9747 3.17127 31.7127 3.17127M31.7127 0C14.1999 0 0 14.1988 0 31.7127C0 49.2265 14.1999 63.4253 31.7127 63.4253C49.2254 63.4253 63.4253 49.2265 63.4253 31.7127C63.4253 14.1988 49.2254 0 31.7127 0Z"/>
  <g id="group0" transform="translate(19.375, 16.938)" fill="none">
   <path id="shape1" transform="translate(14.625, 0.625)" fill="#000000" d="M5 0C2.25 0 0 2.25 0 5L0 23.875C0 26.625 2.25 28.875 5 28.875C7.75 28.875 10 26.625 10 23.875L10 5C10 2.25 7.75 0 5 0ZM7 23.875C7 24.975 6.1 25.875 5 25.875C3.9 25.875 3 24.975 3 23.875L3 5C3 3.9 3.9 3 5 3C6.1 3 7 3.9 7 5Z"/>
   <path id="shape2" transform="translate(0.625, 0.625)" fill="#000000" d="M5 0C2.25 0 0 2.25 0 5L0 23.875C0 26.625 2.25 28.875 5 28.875C7.75 28.875 10 26.625 10 23.875L10 5C10 2.25 7.75 0 5 0ZM7 23.875C7 24.975 6.1 25.875 5 25.875C3.9 25.875 3 24.975 3 23.875L3 5C3 3.9 3.9 3 5 3C6.1 3 7 3.9 7 5Z"/>
  </g>
  <path id="shape0" transform="translate(22.5103, 19.5306)" fill="none" stroke="#000000" stroke-width="1.41732529000" d="M0.882759 1.43487C0.809195 16.1475 0.772414 23.5406 0.772414 23.6142L4.08276 23.3935L4.30345 0.772801L0 4.30384C3.23678 2.9797 4.81839 2.31763 4.74483 2.31763C4.63448 2.31763 3.08966 23.8349 3.08966 23.6142C3.08966 23.3935 2.86897 -0.109958 2.86897 0.000387323C2.86897 0.110732 1.65517 23.5038 1.76552 23.3935C1.83908 23.3199 1.83908 15.5958 1.76552 0.221077C1.17701 0.883146 0.882759 1.28774 0.882759 1.43487Z"/>
  <path id="shape1" transform="translate(37.045, 19.8621)" fill="none" stroke="#000000" stroke-width="1.41732529000" d="M0.0308966 0.441379C-0.0794483 0.441379 0.141241 23.8345 0.141241 23.5034C0.141241 23.2828 0.472276 15.669 1.13434 0.662069C1.28147 16.0368 1.35503 23.6506 1.35503 23.5034C1.35503 23.2828 2.56883 0 2.45848 0C2.38492 0 2.31136 7.94483 2.23779 23.8345C3.04699 8.45977 3.45159 0.809195 3.45159 0.882759C3.45159 0.956322 3.45159 8.53333 3.45159 23.6138C3.45159 23.6138 2.31136 15.8897 0.0308966 0.441379Z"/>
 </g>
</svg>
