<?xml version="1.0" standalone="no"?>
<!DOCTYPE svg PUBLIC "-//W3C//DTD SVG 20010904//EN" "http://www.w3.org/TR/2001/REC-SVG-20010904/DTD/svg10.dtd">
<!-- Created using Karbon, part of Calligra: http://www.calligra.org/karbon -->
<svg xmlns="http://www.w3.org/2000/svg" xmlns:xlink="http://www.w3.org/1999/xlink" width="51.2pt" height="51.2pt">
<defs/>
<g id="layer0">
  <path id="shape0" transform="translate(0.228343, 0.228343)" fill="#000000" stroke="#000000" stroke-width="0.70866264500" stroke-linecap="butt" stroke-linejoin="miter" stroke-miterlimit="1.98425540600" d="M31.7127 3.17127C47.4506 3.17127 60.254 15.9747 60.254 31.7127C60.254 47.4506 47.4506 60.254 31.7127 60.254C15.9747 60.254 3.17127 47.4506 3.17127 31.7127C3.17127 15.9747 15.9747 3.17127 31.7127 3.17127M31.7127 0C14.1999 0 0 14.1988 0 31.7127C0 49.2265 14.1999 63.4253 31.7127 63.4253C49.2254 63.4253 63.4253 49.2265 63.4253 31.7127C63.4253 14.1988 49.2254 0 31.7127 0Z"/>
  <path id="shape1" transform="translate(23, 17.3904)" fill="#000000" d="M20.987 11.3546L5.013 0.841608C2.256 -0.972392 0 0.244608 0 3.54461L0 25.6696C0 28.9696 2.259 30.1906 5.021 28.3836L20.98 17.9396C23.741 16.1306 23.744 13.1686 20.987 11.3546ZM18.858 15.7336L4.673 25.0166C3.753 25.6196 3 25.2126 3 24.1126L3 5.10061C3 4.00061 3.752 3.59561 4.671 4.20061L18.861 13.5386C19.78 14.1426 19.779 15.1306 18.858 15.7336Z"/>
  <path id="shape0" transform="translate(28.2511, 23.9248)" fill="#000000" d="M2.75575 12.2568C1.83717 10.6658 0.918586 9.07473 0 7.48369C0.0413698 5.86991 0.375763 1.13967 2.36991 0.135704C3.14113 -0.252573 4.34392 0.114956 5.16788 0.15692C5.96677 0.197606 6.89724 0.177034 7.65903 0.485192C7.88418 0.57627 8.22459 1.46478 8.33033 1.64792C8.93984 2.70362 9.54935 3.75933 10.1589 4.81503C10.9349 6.15919 11.711 7.50335 12.487 8.84751C12.5598 8.97362 13.213 9.93751 13.1583 10.0102C13.0673 10.1313 11.7449 9.69856 11.4317 9.69391C9.06298 9.65867 7.39259 8.91474 6.43056 11.8013C6.1915 12.5186 6.05274 13.2637 5.91002 14.0049C5.7184 15.0001 5.48745 16.0083 5.51151 17.0299C4.59292 15.4389 3.67434 13.8478 2.75575 12.2568Z"/>
  <path id="shape1" transform="translate(23.3663, 19.4841)" fill="#000000" d="M10.1675 9.87424C10.8819 11.1116 11.5963 12.349 12.3107 13.5864C11.6102 14.2012 10.5279 14.6502 10.0522 15.4758C8.8017 17.6462 7.83363 19.9541 6.41312 22.0199C6.14302 22.4127 4.31164 24.4061 4.40788 24.5085L0.124411 17.0893C1.09159 17.5841 2.37243 16.7057 3.17606 16.2535C5.80539 14.774 7.21745 12.5908 9.44932 10.7712C10.8095 9.66236 12.2591 8.59375 13.836 7.81961C14.0017 7.73826 16.4565 6.84047 16.381 6.62025L20.6666 14.0432C16.7431 13.7574 13.8096 16.4192 10.236 13.4138C9.60679 12.8847 9.2315 12.3624 8.90187 11.623L4.62623 4.21733C4.3712 3.58641 3.7449 2.63773 4.08046 1.97382C4.49151 1.16054 6.02545 0.261273 6.41499 1.59285L10.6949 9.0059C10.245 10.9461 6.40925 10.5136 5.87756 8.99078L1.59744 1.57741C1.02055 -0.472896 3.39214 -0.167257 4.15796 1.28851L8.43831 8.70229C8.78124 9.98515 7.14085 11.5476 6.59378 12.5593C5.71745 14.1799 5.71237 15.8485 5.5359 17.6538C5.45003 18.5324 5.11122 19.6837 5.55609 20.5224L1.27408 13.1058C1.83146 13.1894 1.80944 10.6402 1.82218 10.4165C1.85539 9.83363 1.88955 9.25079 1.91424 8.66753C1.93931 8.07517 1.92051 7.48756 1.99069 6.89746C2.09529 6.01784 2.37269 5.11173 2.36841 4.22107C2.36572 3.66272 1.45524 1.5854 2.09506 1.06688C2.19197 0.98834 2.61022 1.71983 2.66245 1.8115L6.93918 9.21901C7.31756 11.86 7.14491 14.5262 6.99654 17.1815C6.8737 19.3799 7.08682 21.5966 5.34521 23.2008C5.0217 23.4987 4.76672 25.536 4.28235 25.5491C4.15306 25.5526 3.39856 24.0183 3.37904 23.9845C2.55379 22.5551 1.72855 21.1258 0.903307 19.6964C0.77343 19.4715 -0.0250462 18.4621 0 18.1318C0.142122 16.2579 2.24156 15.0211 2.56793 13.1298C3.1751 9.61114 3.21279 5.39678 2.66245 1.8115L6.93918 9.21901C6.86772 9.09384 6.52685 8.42087 6.37821 8.48537C5.88249 8.70049 6.44038 10.3956 6.49606 10.6204C7.02102 12.7395 6.22236 15.6377 6.08218 17.7996C6.04444 18.3816 6.00372 18.9634 5.9514 19.5443C5.93503 19.7259 5.88251 20.5831 5.55609 20.5224L1.27408 13.1058C0.833081 12.2714 1.17095 11.1212 1.26032 10.2483C1.44854 8.40998 1.4114 6.59401 2.41597 4.98045C2.9995 4.04316 4.45916 2.4726 4.15796 1.28851L8.43831 8.70229C7.78801 7.46255 5.20163 6.55868 5.87756 8.99078L1.59744 1.57741C2.20508 3.34767 6.04322 3.24183 6.41499 1.59285L10.6949 9.0059C10.3177 7.66405 8.7469 8.5587 8.36131 9.38843C8.04531 10.0684 8.65672 11.0157 8.90187 11.623L4.62623 4.21733C6.71295 8.92442 12.5103 6.75222 16.381 6.62025L20.6666 14.0432C20.7343 14.2548 18.2797 15.1513 18.1155 15.2321C16.5662 15.994 15.0325 17.0729 13.7284 18.1829C11.5413 20.0444 10.0228 22.1915 7.44907 23.6546C6.65566 24.1056 5.3695 24.9931 4.40788 24.5085L0.124411 17.0893C0.0885968 17.051 2.11385 14.6278 2.36899 14.255C3.7077 12.299 4.42078 9.83493 5.84699 7.95916C6.43109 7.19093 7.36688 6.84413 8.02428 6.16211C8.73868 7.39948 9.45308 8.63686 10.1675 9.87424Z"/>
 </g>
</svg>
