<?xml version="1.0" standalone="no"?>
<!DOCTYPE svg PUBLIC "-//W3C//DTD SVG 20010904//EN" "http://www.w3.org/TR/2001/REC-SVG-20010904/DTD/svg10.dtd">
<!-- Created using Karbon, part of Calligra: http://www.calligra.org/karbon -->
<svg xmlns="http://www.w3.org/2000/svg" xmlns:xlink="http://www.w3.org/1999/xlink" width="51.2pt" height="51.2pt">
<defs/>
<g id="layer0">
  <path id="shape0" transform="translate(0.287347, 0.177002)" fill="#000000" stroke="#000000" stroke-width="0.70866264500" d="M31.7127 3.17127C47.4506 3.17127 60.254 15.9747 60.254 31.7127C60.254 47.4506 47.4506 60.254 31.7127 60.254C15.9747 60.254 3.17127 47.4506 3.17127 31.7127C3.17127 15.9747 15.9747 3.17127 31.7127 3.17127M31.7127 0C14.1999 0 0 14.1988 0 31.7127C0 49.2265 14.1999 63.4253 31.7127 63.4253C49.2254 63.4253 63.4253 49.2265 63.4253 31.7127C63.4253 14.1988 49.2254 0 31.7127 0Z"/>
  <path id="shape1" transform="translate(13.9471, 20.0182)" fill="#000000" d="M2.07388 15.3068L14.0329 23.1328C16.7949 24.9408 19.0529 23.7188 19.0529 20.4188L19.0529 17.9118L27.0329 23.1338C29.7949 24.9418 32.0529 23.7198 32.0529 20.4198L32.0529 3.54484C32.0529 0.244843 29.7969 -0.971157 27.0409 0.842843L19.0529 6.09884L19.0529 3.54384C19.0529 0.243843 16.7969 -0.972157 14.0409 0.841843L2.06388 8.72284C-0.691122 10.5368 -0.688122 13.4998 2.07388 15.3068ZM4.19188 10.9148L14.3829 4.20984C15.3009 3.60584 16.0529 4.01084 16.0529 5.10984L16.0529 9.66384C16.0529 10.7638 16.8049 11.1688 17.7249 10.5638L27.3829 4.20984C28.3009 3.60584 29.0529 4.01084 29.0529 5.10984L29.0529 18.8708C29.0529 19.9708 28.3009 20.3778 27.3789 19.7758L17.7269 13.4578C16.8069 12.8558 16.0529 13.2628 16.0529 14.3628L16.0529 18.8708C16.0529 19.9708 15.3009 20.3778 14.3789 19.7748L4.19488 13.1098C3.27388 12.5068 3.27388 11.5188 4.19188 10.9148Z"/>
  <path id="shape2" transform="translate(17.4345, 23.7241)" fill="none" stroke="#000000" stroke-width="1.41732529000" d="M0.331034 7.83448L12.1379 0.441379L12.0276 16.8828L0 9.04828L11.5862 1.43448L11.1448 15.5586L1.32414 8.93793C7.42989 4.89195 10.4828 2.90575 10.4828 2.97931C10.4828 3.05287 10.4828 6.87816 10.4828 14.4552L2.64828 8.6069L9.37931 4.41379C9.89425 10.1517 10.0414 12.9839 9.82069 12.9103C9.6 12.8368 7.54023 11.1816 3.64138 7.94483L9.26897 5.29655L8.82759 11.2552L5.18621 8.05517L8.38621 6.73103L7.83448 9.48966L6.06897 7.83448L25.3793 7.83448L25.0483 0L12.3586 7.28276L13.2414 10.3724L24.7172 16.2207L25.931 14.2345L25.269 6.84138C24.4598 2.42759 23.9816 0.331034 23.8345 0.551724C23.6874 0.772414 20.1195 3.2 13.131 7.83448L16.6621 11.3655C22.5471 13.646 25.4529 14.7862 25.3793 14.7862C25.3057 14.7862 24.3126 14.6759 22.4 14.4552C22.9885 4.89195 23.3563 0.441379 23.5034 1.10345C23.6506 1.76552 24.3126 6.36322 25.4897 14.8966C24.092 8.86437 23.3931 5.92184 23.3931 6.06897C23.3931 6.21609 23.3195 8.82759 23.1724 13.9034L25.1586 12.2483L16.7724 5.62759C21.1862 3.49425 23.3563 2.42759 23.2828 2.42759C23.2092 2.42759 23.5402 7.06207 24.2759 16.331C22.8046 7.65057 22.069 3.49425 22.069 3.86207C22.069 4.22989 21.9218 7.61379 21.6276 14.0138C21.4069 7.09885 21.2966 3.75172 21.2966 3.97241C21.2966 4.30345 20.3034 13.0207 20.4138 12.9103C20.4874 12.8368 20.4506 9.93103 20.3034 4.1931L19.4207 12.0276C19.1264 7.31954 19.0161 4.96552 19.0897 4.96552C19.1632 4.96552 18.9425 7.06207 18.4276 11.2552L17.8759 4.63448C17.508 9.63678 17.3241 11.9908 17.3241 11.6966C17.3241 11.2552 16.7724 5.4069 16.7724 5.73793C16.7724 5.95862 16.2943 8.23908 15.3379 12.5793L15.7793 6.17931L13.5724 11.5862L5.4069 10.4828L17.6552 13.131C17.6552 13.131 11.8805 11.3655 0.331034 7.83448Z"/>
 </g>
</svg>
