<?xml version="1.0" standalone="no"?>
<!DOCTYPE svg PUBLIC "-//W3C//DTD SVG 20010904//EN" "http://www.w3.org/TR/2001/REC-SVG-20010904/DTD/svg10.dtd">
<!-- Created using Karbon, part of Calligra: http://www.calligra.org/karbon -->
<svg xmlns="http://www.w3.org/2000/svg" xmlns:xlink="http://www.w3.org/1999/xlink" width="51.2pt" height="51.2pt">
<defs/>
<g id="layer0">
  <path id="shape0" transform="translate(0.287347, 0.287347)" fill="#000000" stroke="#000000" stroke-width="0.70866264500" stroke-linecap="butt" stroke-linejoin="miter" stroke-miterlimit="1.98425540600" d="M31.7127 3.17127C47.4506 3.17127 60.254 15.9747 60.254 31.7127C60.254 47.4506 47.4506 60.254 31.7127 60.254C15.9747 60.254 3.17127 47.4506 3.17127 31.7127C3.17127 15.9747 15.9747 3.17127 31.7127 3.17127M31.7127 0C14.1999 0 0 14.1988 0 31.7127C0 49.2265 14.1999 63.4253 31.7127 63.4253C49.2254 63.4253 63.4253 49.2265 63.4253 31.7127C63.4253 14.1988 49.2254 0 31.7127 0Z"/>
  <path id="shape1" transform="translate(17.563, 17.563)" fill="#000000" d="M23.875 0L5 0C2.25 0 0 2.25 0 5L0 23.875C0 26.625 2.25 28.875 5 28.875L23.875 28.875C26.625 28.875 28.875 26.625 28.875 23.875L28.875 5C28.875 2.25 26.625 0 23.875 0ZM25.875 22.875C25.875 24.525 24.525 25.875 22.875 25.875L6 25.875C4.35 25.875 3 24.525 3 22.875L3 6C3 4.35 4.35 3 6 3L22.875 3C24.525 3 25.875 4.35 25.875 6Z"/>
  <path id="shape0" transform="translate(20.9655, 19.9724)" fill="none" stroke="#000000" stroke-width="1.41732529000" d="M0 1.54483L0 22.1793L2.97931 23.3931C15.0437 23.3931 21.0759 23.3563 21.0759 23.2828C21.0759 23.2092 21.5908 22.5103 22.6207 21.1862L22.2897 1.21379C20.2299 0.404598 19.1632 0 19.0897 0C18.9793 0 1.21379 0.993103 1.10345 1.21379C1.02989 1.36092 0.91954 8.2023 0.772414 21.7379L6.06897 22.6207L20.6345 22.2897L22.069 19.8621L21.7379 1.76552C19.4575 1.17701 18.2805 0.882759 18.2069 0.882759C18.1333 0.882759 12.6897 1.21379 1.87586 1.87586L1.87586 21.6276L20.7448 21.2966L20.6345 1.76552L2.53793 2.53793L2.64828 21.1862C14.1977 20.7448 20.0092 20.4506 20.0828 20.3034C20.1563 20.1563 20.0092 14.2713 19.6414 2.64828L3.2 3.53103L3.42069 20.7448L19.3103 19.3103L18.7586 3.08966L3.75172 4.41379C3.97241 14.7126 4.15632 19.8621 4.30345 19.8621C4.45057 19.8621 9.1954 19.3839 18.5379 18.4276L17.5448 3.64138L4.30345 5.4069L5.29655 18.9793C13.8299 17.9494 18.023 17.4345 17.8759 17.4345C17.7287 17.4345 17.3241 13.0943 16.6621 4.41379C9.01149 5.51724 5.14943 6.06897 5.07586 6.06897C4.96552 6.06897 5.62759 18.2069 6.51034 18.2069C7.3931 18.2069 17.2138 17.5448 17.1034 16.7724C16.9931 16 15.4483 4.63448 15.5586 4.63448C15.6322 4.63448 12.2115 5.33333 5.29655 6.73103L7.17241 17.5448L16.331 16.331L14.7862 5.4069L6.17931 7.28276C7.35632 13.8299 7.98161 17.0667 8.05517 16.9931C8.12874 16.9195 10.6299 16.4782 15.5586 15.669C14.823 9.63678 14.4184 6.62069 14.3448 6.62069C14.2713 6.62069 11.8069 7.13563 6.95172 8.16552C8.05517 13.2414 8.64368 15.8161 8.71724 15.8897C8.82759 16 15.1172 14.4552 15.1172 14.3448C15.1172 14.2713 14.6759 11.954 13.7931 7.3931L7.72414 9.04828L9.48966 15.0069C12.8736 13.9034 14.5287 13.3149 14.4552 13.2414C14.3816 13.1678 13.8667 11.4759 12.9103 8.16552L8.71724 9.82069C9.52644 12.6161 9.96782 14.0138 10.0414 14.0138C10.1149 14.0138 11.292 13.4989 13.5724 12.469L12.2483 8.71724L9.37931 11.0345L10.3724 12.5793L12.5793 11.8069L11.4759 9.48966L10.4828 11.9172L12.469 10.9241C13.4989 13.3517 14.0506 14.5655 14.1241 14.5655C14.2345 14.5655 6.73103 16.6621 6.62069 16.6621C6.51034 16.6621 6.51034 16.6621 0 1.54483Z"/>
 </g>
</svg>
