<?xml version="1.0" standalone="no"?>
<!DOCTYPE svg PUBLIC "-//W3C//DTD SVG 20010904//EN" "http://www.w3.org/TR/2001/REC-SVG-20010904/DTD/svg10.dtd">
<!-- Created using Karbon, part of Calligra: http://www.calligra.org/karbon -->
<svg xmlns="http://www.w3.org/2000/svg" xmlns:xlink="http://www.w3.org/1999/xlink" width="40pt" height="40pt">
<defs/>
<g id="Page-1">
  <g id="Picasa" transform="translate(-0.625, -0.625)" fill="none">
   <path id="Oval-1" transform="translate(0.625, 0.625)" fill="#d6d6d6" fill-rule="evenodd" d="M25 50C38.8071 50 50 38.8071 50 25C50 11.1929 38.8071 0 25 0C11.1929 0 0 11.1929 0 25C0 38.8071 11.1929 50 25 50ZM25 47C37.1503 47 47 37.1503 47 25C47 12.8497 37.1503 3 25 3C12.8497 3 3 12.8497 3 25C3 37.1503 12.8497 47 25 47ZM18.3082 24.9268L18.3082 36.1026C15.8801 34.634 13.9785 32.4175 12.9378 29.809ZM20.4591 12.8521C21.9244 12.2978 23.4481 12 24.998 12C26.861 12 28.659 12.3973 30.3579 13.1657L30.3579 21.8322ZM12.472 28.3769C12.1682 27.2531 12 26.1187 12 25C12 20.0969 14.7098 15.6851 19.0745 13.4427L23.9948 17.9068ZM36.6724 30.6506C34.5083 35.1148 29.9555 38 24.998 38C23.1522 38 21.3634 37.6133 19.6735 36.8501L19.6735 30.6506ZM37.2577 29.2811L31.7274 29.2811L31.7274 13.9132C35.5956 16.2654 38.0001 20.4837 38 25.0001C38 26.4584 37.7438 27.896 37.2577 29.2811ZM37.2577 29.2811"/>
  </g>
 </g>
</svg>
