<?xml version="1.0" standalone="no"?>
<!DOCTYPE svg PUBLIC "-//W3C//DTD SVG 20010904//EN" "http://www.w3.org/TR/2001/REC-SVG-20010904/DTD/svg10.dtd">
<!-- Created using Karbon, part of Calligra: http://www.calligra.org/karbon -->
<svg xmlns="http://www.w3.org/2000/svg" xmlns:xlink="http://www.w3.org/1999/xlink" width="51.2pt" height="51.2pt">
<defs/>
<g id="layer0">
  <path id="shape0" transform="translate(0.287347, 0.287347)" fill="#d6d6d6" stroke="#d6d6d6" stroke-width="0.70866264500" stroke-linecap="butt" stroke-linejoin="miter" stroke-miterlimit="2.00000000000" d="M31.7127 3.17127C47.4506 3.17127 60.254 15.9747 60.254 31.7127C60.254 47.4506 47.4506 60.254 31.7127 60.254C15.9747 60.254 3.17127 47.4506 3.17127 31.7127C3.17127 15.9747 15.9747 3.17127 31.7127 3.17127M31.7127 0C14.1999 0 0 14.1988 0 31.7127C0 49.2265 14.1999 63.4253 31.7127 63.4253C49.2254 63.4253 63.4253 49.2265 63.4253 31.7127C63.4253 14.1988 49.2254 0 31.7127 0Z"/>
  <path id="shape0" transform="translate(21.2171, 13.6418)" fill="#d6d6d6" d="M21.3455 1.43376C21.3455 0.640617 20.715 0 19.9388 0L1.40542 0C0.6292 0 0 0.640617 0 1.43376L0 35.0636C0 35.8542 0.6292 36.4961 1.40542 36.4961L19.9388 36.4961C20.715 36.4961 21.3455 35.8542 21.3455 35.0636ZM10.6628 34.9848C9.74949 34.9848 9.00815 34.2298 9.00815 33.2981C9.00815 32.369 9.74949 31.614 10.6628 31.614C11.5748 31.614 12.3149 32.369 12.3149 33.2981C12.3149 34.2298 11.576 34.9848 10.6628 34.9848ZM17.9328 27.8046L3.41139 27.8046L3.41139 4.70422L17.9328 4.70422Z"/>
 </g>
</svg>
