<?xml version="1.0" standalone="no"?>
<!DOCTYPE svg PUBLIC "-//W3C//DTD SVG 20010904//EN" "http://www.w3.org/TR/2001/REC-SVG-20010904/DTD/svg10.dtd">
<!-- Created using Karbon, part of Calligra: http://www.calligra.org/karbon -->
<svg xmlns="http://www.w3.org/2000/svg" xmlns:xlink="http://www.w3.org/1999/xlink" width="51.2pt" height="51.2pt">
<defs/>
<g id="layer0">
  <path id="shape0" transform="translate(0.287347, 0.287347)" fill="#d6d6d6" stroke="#d6d6d6" stroke-width="0.70866264500" d="M31.7127 3.17127C47.4506 3.17127 60.254 15.9747 60.254 31.7127C60.254 47.4506 47.4506 60.254 31.7127 60.254C15.9747 60.254 3.17127 47.4506 3.17127 31.7127C3.17127 15.9747 15.9747 3.17127 31.7127 3.17127M31.7127 0C14.1999 0 0 14.1988 0 31.7127C0 49.2265 14.1999 63.4253 31.7127 63.4253C49.2254 63.4253 63.4253 49.2265 63.4253 31.7127C63.4253 14.1988 49.2254 0 31.7127 0Z"/>
  <path id="shape1" transform="translate(17.563, 17.563)" fill="#d6d6d6" d="M23.875 0L5 0C2.25 0 0 2.25 0 5L0 23.875C0 26.625 2.25 28.875 5 28.875L23.875 28.875C26.625 28.875 28.875 26.625 28.875 23.875L28.875 5C28.875 2.25 26.625 0 23.875 0ZM25.875 22.875C25.875 24.525 24.525 25.875 22.875 25.875L6 25.875C4.35 25.875 3 24.525 3 22.875L3 6C3 4.35 4.35 3 6 3L22.875 3C24.525 3 25.875 4.35 25.875 6Z"/>
 </g>
</svg>
